<svg width="17" height="16" viewBox="0 0 17 16" fill="none" xmlns="http://www.w3.org/2000/svg">
<g clip-path="url(#clip0_4_1039)">
<path fill-rule="evenodd" clip-rule="evenodd" d="M2.69895 0.510903C2.87392 0.336191 3.08403 0.200661 3.31534 0.113293C3.54666 0.0259244 3.7939 -0.0112866 4.04069 0.00412564C4.28747 0.0195378 4.52816 0.0872213 4.74681 0.202691C4.96546 0.31816 5.15707 0.478779 5.30895 0.673903L7.10395 2.9799C7.43295 3.4029 7.54895 3.9539 7.41895 4.4739L6.87195 6.6639C6.84367 6.77733 6.84519 6.89615 6.87638 7.00881C6.90757 7.12148 6.96736 7.22416 7.04995 7.3069L9.50695 9.7639C9.58978 9.84666 9.69264 9.90655 9.8055 9.93774C9.91836 9.96893 10.0374 9.97037 10.1509 9.9419L12.3399 9.3949C12.5966 9.33074 12.8644 9.32576 13.1232 9.38033C13.3821 9.4349 13.6251 9.5476 13.8339 9.7099L16.1399 11.5039C16.9689 12.1489 17.0449 13.3739 16.3029 14.1149L15.2689 15.1489C14.5289 15.8889 13.4229 16.2139 12.3919 15.8509C9.75313 14.9224 7.35722 13.4117 5.38195 11.4309C3.40124 9.45592 1.89056 7.06036 0.961947 4.4219C0.599947 3.3919 0.924948 2.2849 1.66495 1.5449L2.69895 0.510903Z" fill="#0F6DB3"/>
</g>
<defs>
<clipPath id="clip0_4_1039">
<rect width="16" height="16" fill="white" transform="translate(0.813477)"/>
</clipPath>
</defs>
</svg>
