<svg width="79" height="79" viewBox="0 0 79 79" fill="none" xmlns="http://www.w3.org/2000/svg">
<path d="M26.1341 8.07775C25.2085 9.00367 24.6885 10.2593 24.6885 11.5686C24.6885 12.8778 25.2085 14.1335 26.1341 15.0594L50.5747 39.5L26.1341 63.9406C25.2347 64.8718 24.737 66.1191 24.7483 67.4137C24.7595 68.7083 25.2788 69.9467 26.1943 70.8621C27.1097 71.7776 28.3481 72.2968 29.6427 72.3081C30.9373 72.3193 32.1845 71.8217 33.1157 70.9222L61.0472 42.9908C61.9728 42.0649 62.4928 40.8092 62.4928 39.5C62.4928 38.1908 61.9728 36.9351 61.0472 36.0092L33.1157 8.07775C32.1898 7.15211 30.9342 6.63212 29.6249 6.63212C28.3157 6.63212 27.06 7.15211 26.1341 8.07775Z" fill="#004E98"/>
</svg>
