<svg width="79" height="79" viewBox="0 0 79 79" fill="none" xmlns="http://www.w3.org/2000/svg">
<path d="M52.8658 8.07775C53.7914 9.00367 54.3114 10.2593 54.3114 11.5686C54.3114 12.8778 53.7914 14.1335 52.8658 15.0594L28.4252 39.5L52.8658 63.9406C53.7652 64.8718 54.2629 66.1191 54.2516 67.4137C54.2404 68.7083 53.7211 69.9467 52.8056 70.8621C51.8902 71.7776 50.6518 72.2968 49.3572 72.3081C48.0626 72.3193 46.8154 71.8217 45.8842 70.9222L17.9527 42.9908C17.0271 42.0649 16.5071 40.8092 16.5071 39.5C16.5071 38.1908 17.0271 36.9351 17.9527 36.0092L45.8842 8.07775C46.8101 7.15211 48.0657 6.63212 49.375 6.63212C50.6842 6.63212 51.9399 7.15211 52.8658 8.07775Z" fill="#004E98"/>
</svg>
