<svg width="100" height="100" viewBox="0 0 100 100" fill="none" xmlns="http://www.w3.org/2000/svg">
<path d="M90.5782 68.3906C89.8817 73.6837 87.2822 78.5422 83.2653 82.0588C79.2484 85.5754 74.0887 87.5095 68.75 87.4999C37.7344 87.4999 12.5 62.2656 12.5 31.2499C12.4905 25.9112 14.4246 20.7516 17.9412 16.7347C21.4578 12.7178 26.3163 10.1183 31.6094 9.42182C32.9479 9.25838 34.3034 9.53222 35.4734 10.2024C36.6435 10.8727 37.5654 11.9033 38.1016 13.1406L46.3516 31.5585V31.6054C46.7621 32.5525 46.9316 33.5865 46.8451 34.6151C46.7585 35.6437 46.4185 36.6348 45.8555 37.4999C45.7852 37.6054 45.711 37.7031 45.6328 37.8007L37.5 47.4413C40.4258 53.3867 46.6446 59.5507 52.668 62.4843L62.1758 54.3945C62.2692 54.316 62.367 54.2429 62.4688 54.1757C63.3332 53.5992 64.3277 53.2472 65.3624 53.1517C66.3971 53.0563 67.4392 53.2202 68.3946 53.6288L68.4454 53.6523L86.8477 61.8984C88.0871 62.4326 89.1203 63.3538 89.7927 64.524C90.4652 65.6942 90.7407 67.0507 90.5782 68.3906Z" fill="#4D73BF"/>
</svg>
